<mxfile host="app.diagrams.net" modified="2023-09-09T23:31:12.689Z" agent="Mozilla/5.0 (Windows NT 10.0; Win64; x64; rv:109.0) Gecko/20100101 Firefox/117.0" etag="cuhbYpHxYy5Al4TDXhqw" version="21.7.4" type="device">
  <diagram name="Página-1" id="yK5i2PRDFFBWmrsfLBCU">
    <mxGraphModel dx="1434" dy="792" grid="1" gridSize="10" guides="1" tooltips="1" connect="1" arrows="1" fold="1" page="1" pageScale="1" pageWidth="827" pageHeight="1169" math="0" shadow="0">
      <root>
        <mxCell id="0" />
        <mxCell id="1" parent="0" />
        <mxCell id="DJ--pUdD7WJsSumPhOPc-1" value="" style="strokeWidth=2;html=1;shape=mxgraph.flowchart.start_2;whiteSpace=wrap;" vertex="1" parent="1">
          <mxGeometry x="120" y="80" width="30" height="30" as="geometry" />
        </mxCell>
        <mxCell id="DJ--pUdD7WJsSumPhOPc-6" style="edgeStyle=orthogonalEdgeStyle;rounded=0;orthogonalLoop=1;jettySize=auto;html=1;entryX=0;entryY=0.5;entryDx=0;entryDy=0;" edge="1" parent="1" source="DJ--pUdD7WJsSumPhOPc-2" target="DJ--pUdD7WJsSumPhOPc-4">
          <mxGeometry relative="1" as="geometry" />
        </mxCell>
        <mxCell id="DJ--pUdD7WJsSumPhOPc-2" value="En pantalla de inicio presiona la opción &quot;Restablecer aquí&quot;" style="rounded=1;whiteSpace=wrap;html=1;" vertex="1" parent="1">
          <mxGeometry x="180" y="52.5" width="120" height="85" as="geometry" />
        </mxCell>
        <mxCell id="DJ--pUdD7WJsSumPhOPc-3" value="" style="endArrow=classic;html=1;rounded=0;exitX=1;exitY=0.5;exitDx=0;exitDy=0;exitPerimeter=0;entryX=0;entryY=0.5;entryDx=0;entryDy=0;" edge="1" parent="1" source="DJ--pUdD7WJsSumPhOPc-1" target="DJ--pUdD7WJsSumPhOPc-2">
          <mxGeometry width="50" height="50" relative="1" as="geometry">
            <mxPoint x="270" y="385" as="sourcePoint" />
            <mxPoint x="320" y="335" as="targetPoint" />
          </mxGeometry>
        </mxCell>
        <mxCell id="DJ--pUdD7WJsSumPhOPc-16" style="edgeStyle=orthogonalEdgeStyle;rounded=0;orthogonalLoop=1;jettySize=auto;html=1;entryX=0;entryY=0.5;entryDx=0;entryDy=0;" edge="1" parent="1" source="DJ--pUdD7WJsSumPhOPc-4" target="DJ--pUdD7WJsSumPhOPc-5">
          <mxGeometry relative="1" as="geometry" />
        </mxCell>
        <mxCell id="DJ--pUdD7WJsSumPhOPc-4" value="Se despliega la página de restablecer contraseña" style="rounded=1;whiteSpace=wrap;html=1;" vertex="1" parent="1">
          <mxGeometry x="340" y="52.5" width="120" height="85" as="geometry" />
        </mxCell>
        <mxCell id="DJ--pUdD7WJsSumPhOPc-17" style="edgeStyle=orthogonalEdgeStyle;rounded=0;orthogonalLoop=1;jettySize=auto;html=1;entryX=0.5;entryY=0;entryDx=0;entryDy=0;" edge="1" parent="1" source="DJ--pUdD7WJsSumPhOPc-5" target="DJ--pUdD7WJsSumPhOPc-9">
          <mxGeometry relative="1" as="geometry" />
        </mxCell>
        <mxCell id="DJ--pUdD7WJsSumPhOPc-5" value="Se llena el campo con el correo electrónico enlazado a la cuenta" style="rounded=1;whiteSpace=wrap;html=1;" vertex="1" parent="1">
          <mxGeometry x="500" y="52.5" width="120" height="85" as="geometry" />
        </mxCell>
        <mxCell id="DJ--pUdD7WJsSumPhOPc-18" style="edgeStyle=orthogonalEdgeStyle;rounded=0;orthogonalLoop=1;jettySize=auto;html=1;entryX=1;entryY=0.5;entryDx=0;entryDy=0;" edge="1" parent="1" source="DJ--pUdD7WJsSumPhOPc-9" target="DJ--pUdD7WJsSumPhOPc-11">
          <mxGeometry relative="1" as="geometry" />
        </mxCell>
        <mxCell id="DJ--pUdD7WJsSumPhOPc-9" value="Se presiona el botón &quot;Enviar correo de recuperación&quot;" style="rounded=1;whiteSpace=wrap;html=1;" vertex="1" parent="1">
          <mxGeometry x="500" y="190" width="120" height="85" as="geometry" />
        </mxCell>
        <mxCell id="DJ--pUdD7WJsSumPhOPc-19" style="edgeStyle=orthogonalEdgeStyle;rounded=0;orthogonalLoop=1;jettySize=auto;html=1;entryX=1;entryY=0.5;entryDx=0;entryDy=0;" edge="1" parent="1" source="DJ--pUdD7WJsSumPhOPc-11" target="DJ--pUdD7WJsSumPhOPc-14">
          <mxGeometry relative="1" as="geometry" />
        </mxCell>
        <mxCell id="DJ--pUdD7WJsSumPhOPc-20" value="No" style="edgeLabel;html=1;align=center;verticalAlign=middle;resizable=0;points=[];" vertex="1" connectable="0" parent="DJ--pUdD7WJsSumPhOPc-19">
          <mxGeometry x="-0.2" y="1" relative="1" as="geometry">
            <mxPoint as="offset" />
          </mxGeometry>
        </mxCell>
        <mxCell id="DJ--pUdD7WJsSumPhOPc-21" style="edgeStyle=orthogonalEdgeStyle;rounded=0;orthogonalLoop=1;jettySize=auto;html=1;entryX=0.5;entryY=0;entryDx=0;entryDy=0;" edge="1" parent="1" source="DJ--pUdD7WJsSumPhOPc-11" target="DJ--pUdD7WJsSumPhOPc-13">
          <mxGeometry relative="1" as="geometry" />
        </mxCell>
        <mxCell id="DJ--pUdD7WJsSumPhOPc-22" value="Si" style="edgeLabel;html=1;align=center;verticalAlign=middle;resizable=0;points=[];" vertex="1" connectable="0" parent="DJ--pUdD7WJsSumPhOPc-21">
          <mxGeometry x="-0.1294" y="-1" relative="1" as="geometry">
            <mxPoint as="offset" />
          </mxGeometry>
        </mxCell>
        <mxCell id="DJ--pUdD7WJsSumPhOPc-11" value="¿Existe el correo electrónico?" style="rhombus;whiteSpace=wrap;html=1;" vertex="1" parent="1">
          <mxGeometry x="340" y="187.5" width="100" height="90" as="geometry" />
        </mxCell>
        <mxCell id="DJ--pUdD7WJsSumPhOPc-26" style="edgeStyle=orthogonalEdgeStyle;rounded=0;orthogonalLoop=1;jettySize=auto;html=1;entryX=0.5;entryY=0;entryDx=0;entryDy=0;" edge="1" parent="1" source="DJ--pUdD7WJsSumPhOPc-13" target="DJ--pUdD7WJsSumPhOPc-25">
          <mxGeometry relative="1" as="geometry" />
        </mxCell>
        <mxCell id="DJ--pUdD7WJsSumPhOPc-13" value="El correo se ha enviado correctamente" style="rounded=1;whiteSpace=wrap;html=1;" vertex="1" parent="1">
          <mxGeometry x="330" y="330" width="120" height="85" as="geometry" />
        </mxCell>
        <mxCell id="DJ--pUdD7WJsSumPhOPc-24" style="edgeStyle=orthogonalEdgeStyle;rounded=0;orthogonalLoop=1;jettySize=auto;html=1;entryX=1;entryY=0.5;entryDx=0;entryDy=0;" edge="1" parent="1" source="DJ--pUdD7WJsSumPhOPc-14" target="DJ--pUdD7WJsSumPhOPc-23">
          <mxGeometry relative="1" as="geometry" />
        </mxCell>
        <mxCell id="DJ--pUdD7WJsSumPhOPc-14" value="Se envía mensaje &quot;Rellene con un correo que pertenezca a su cuenta enlazada&quot;" style="rounded=1;whiteSpace=wrap;html=1;" vertex="1" parent="1">
          <mxGeometry x="160" y="190" width="120" height="85" as="geometry" />
        </mxCell>
        <mxCell id="DJ--pUdD7WJsSumPhOPc-23" value="" style="ellipse;shape=doubleEllipse;whiteSpace=wrap;html=1;aspect=fixed;perimeterSpacing=0;strokeWidth=2;" vertex="1" parent="1">
          <mxGeometry x="60" y="212.5" width="40" height="40" as="geometry" />
        </mxCell>
        <mxCell id="DJ--pUdD7WJsSumPhOPc-25" value="" style="ellipse;shape=doubleEllipse;whiteSpace=wrap;html=1;aspect=fixed;perimeterSpacing=0;strokeWidth=2;" vertex="1" parent="1">
          <mxGeometry x="370" y="460" width="40" height="40" as="geometry" />
        </mxCell>
      </root>
    </mxGraphModel>
  </diagram>
</mxfile>
